<svg viewBox="0 0 576 512" xmlns="http://www.w3.org/2000/svg">
  <path fill="#4DF0FF" d="M576 216v16c0 13.3-10.7 24-24 24h-8l-26.1 182.6c-1.9 13.5-14.4 23.4-28 23.4H86.1c-13.6 0-26-9.9-28-23.4L32 256h-8c-13.3 0-24-10.7-24-24v-16c0-13.3 10.7-24 24-24h67.8L232 8.4c4.9-6.6 13-10.4 21.7-10.4h68.6c8.6 0 16.8 3.9 21.7 10.4L484.2 192H552c13.3 0 24 10.7 24 24zM312 256c0-17.7-14.3-32-32-32s-32 14.3-32 32 14.3 32 32 32 32-14.3 32-32zm-42.3 82.5-41.8-83.2c-2.1-4.2-6.4-6.7-10.9-6.7-10.6 0-16.8 12.1-10.6 20.9l41.8 83.2c2.1 4.2 6.4 6.7 10.9 6.7 10.5.1 16.8-12 10.6-20.9zm42.3-82.5c0-17.7-14.3-32-32-32s-32 14.3-32 32 14.3 32 32 32 32-14.3 32-32zm84.5 0c0-17.7-14.3-32-32-32s-32 14.3-32 32 14.3 32 32 32 32-14.3 32-32zm-74.2 82.5-41.8-83.2c-2.1-4.2-6.4-6.7-10.9-6.7-10.6 0-16.8 12.1-10.6 20.9l41.8 83.2c2.1 4.2 6.4 6.7 10.9 6.7 10.5.1 16.8-12 10.6-20.9zm74.2-82.5c0-17.7-14.3-32-32-32s-32 14.3-32 32 14.3 32 32 32 32-14.3 32-32z"/>
</svg>