<svg viewBox="0 0 448 512" xmlns="http://www.w3.org/2000/svg">
  <path fill="#4DF0FF" d="M6.1 444.3c-9.6 10.9-7.5 27.7 4.2 35.8l68.5 47c7.9 5.4 17.4 7.2 26.6 5.1 29.6-6.8 58.5-15.7 86-27.3l86-36.5c13.1-5.6 19.6-20.9 14.6-34.2l-21.3-57.1c-3.4-9.1-10.8-15.6-19.9-17.8-10.8-2.6-21.3.4-51.5 8.4l-30.1 8.1c40.8-70.8 83.7-136 104.9-173.7 5.7-10.1 5.2-22.4-1.2-32-6.2-9.4-16.7-14.8-28-14.8h-59.6c-17.1 0-32.3 10.7-38.1 26.8-3.1 8.5-13.5 38.1-30.7 83.9-21-41.3-45-84.1-66.6-122.3-5.9-10.6-16.8-17.2-28.8-17.4C8.3 106.5-3.4 119.4 1.4 132l9.4 25.6c25 61.6 79.3 190.5 86.8 209 .8 1.9 1.4 3.8 1.9 5.6-9-4.1-17.7-9.1-48.6 2.2-11.4 4.1-17.9 16.3-14.8 28.3l17.3 66.6c2.3 8.9 8.5 16.1 16.7 19z"/>
</svg>